<svg id="Layer_1" data-name="Layer 1" xmlns="http://www.w3.org/2000/svg" viewBox="0 0 512 512"><title>text-to-speech-no-article</title><path d="M256,88a320.85,320.85,0,0,1,90.6,12.69c27.18,8,51.45,19.35,72.13,33.73,39.51,27.49,61.27,62.9,61.27,99.71s-21.76,72.22-61.27,99.71c-20.68,14.39-45,25.74-72.13,33.73a320.49,320.49,0,0,1-90.6,12.7,323.57,323.57,0,0,1-84.17-10.89l-18-4.85-13.1,13.2L133,385.51v-28.9l-17-9c-26.43-14-48.09-32-62.64-52C39.19,276.18,32,255.47,32,234.09c0-36.81,21.76-72.22,61.27-99.71,20.68-14.38,45-25.73,72.13-33.73A320.85,320.85,0,0,1,256,88m0-32C114.62,56,0,135.73,0,234.09c0,57.83,39.62,109.2,101,141.74V451a5,5,0,0,0,8.55,3.51l53.94-54.32a355.9,355.9,0,0,0,92.51,12c141.38,0,256-79.74,256-178.1S397.38,56,256,56Z"/></svg>